<svg fill="#FFFFFF" xmlns="http://www.w3.org/2000/svg" xmlns:xlink="http://www.w3.org/1999/xlink" version="1.1" x="0px" y="0px" viewBox="0 0 100 100" enable-background="new 0 0 100 100" xml:space="preserve"><path fill="#FFFFFF" d="M77.773,49.28c-2.873,0-5.545,0.87-7.771,2.36v-0.137c-5.936,4.663-18.352,7.128-30.228,7.128  c-11.877,0-24.291-2.465-30.228-7.128v8.456c0,16.693,13.533,30.228,30.228,30.228c12.206,0,22.718-7.24,27.487-17.656  c2.57,2.918,6.328,4.763,10.512,4.763c7.725,0,14.008-6.283,14.008-14.007C91.781,55.564,85.498,49.28,77.773,49.28z M77.773,70.773  c-4.129,0-7.486-3.357-7.486-7.486c0-4.127,3.357-7.485,7.486-7.485s7.486,3.358,7.486,7.485  C85.26,67.416,81.902,70.773,77.773,70.773z"></path><g><path fill="#FFFFFF" d="M35.455,34.2c-0.432-0.937-0.959-1.804-1.536-2.612c-0.586-0.812-1.203-1.536-1.898-2.252l-0.451-0.453   l-0.401-0.413c-0.267-0.273-0.52-0.555-0.768-0.836c-0.496-0.562-0.947-1.139-1.354-1.724c-0.809-1.177-1.407-2.387-1.69-3.679   c-0.287-1.29-0.223-2.709,0.221-4.2c0.441-1.492,1.222-3.005,2.249-4.498c-0.883,0.263-1.705,0.707-2.474,1.243   c-0.772,0.538-1.48,1.192-2.106,1.957c-0.617,0.767-1.149,1.648-1.522,2.626c-0.381,0.974-0.594,2.041-0.636,3.119   c-0.034,1.076,0.092,2.16,0.366,3.184c0.273,1.024,0.669,1.993,1.15,2.89c0.479,0.898,1.037,1.729,1.64,2.501   c0.3,0.387,0.618,0.755,0.938,1.114c0.161,0.179,0.326,0.353,0.492,0.525l0.459,0.47c1.04,1.074,2.004,2.237,2.726,3.426   c0.002,0.004,0.004,0.008,0.007,0.012c1.689-0.178,3.468-0.308,5.334-0.381C36.004,35.52,35.754,34.84,35.455,34.2z"></path><path fill="#FFFFFF" d="M51.192,36.324c0.237-2.321-0.29-4.697-1.239-6.727c-0.471-1.021-1.046-1.968-1.676-2.85   c-0.317-0.439-0.65-0.861-0.991-1.27c-0.353-0.411-0.688-0.782-1.08-1.188l-0.493-0.494l-0.438-0.45   c-0.29-0.299-0.566-0.605-0.837-0.912c-0.54-0.613-1.034-1.242-1.478-1.881c-0.883-1.283-1.535-2.604-1.841-4.014   c-0.319-1.406-0.245-2.954,0.237-4.582c0.481-1.628,1.333-3.277,2.453-4.906c-0.962,0.286-1.859,0.771-2.698,1.355   c-0.842,0.587-1.615,1.302-2.297,2.135c-0.675,0.837-1.254,1.799-1.661,2.865c-0.417,1.062-0.646,2.228-0.696,3.402   c-0.046,1.177,0.107,2.356,0.401,3.474c0.298,1.117,0.729,2.175,1.256,3.153c0.521,0.98,1.131,1.886,1.788,2.728   c0.328,0.422,0.674,0.823,1.023,1.216c0.176,0.195,0.357,0.384,0.538,0.572l0.499,0.513c1.136,1.174,2.188,2.44,2.976,3.739   c0.794,1.305,1.344,2.656,1.565,4.115c0.005,0.026,0.007,0.055,0.01,0.082c1.608,0.123,3.142,0.29,4.599,0.492   C51.142,36.704,51.173,36.516,51.192,36.324z"></path><path d="M51.113,36.894c-0.314,2.101-1.206,4.025-2.427,5.534c-0.67,0.825-1.42,1.551-2.238,2.16   c-0.816,0.607-1.69,1.13-2.638,1.462c1.034-1.688,1.827-3.366,2.308-5.024c0.472-1.624,0.614-3.188,0.396-4.624   c-2.123-0.163-4.371-0.254-6.74-0.254c-1.225,0-2.415,0.025-3.575,0.071c0.371,1.335,0.534,2.752,0.388,4.147   c-0.202,2.127-1.073,4.087-2.294,5.594c-0.613,0.758-1.3,1.422-2.05,1.979c-0.749,0.559-1.55,1.035-2.418,1.341   c0.948-1.547,1.674-3.085,2.115-4.605c0.441-1.517,0.566-2.979,0.356-4.314c-0.208-1.332-0.706-2.567-1.432-3.761   c-12.959,1.357-20.616,5.514-20.616,8.65c0,3.8,11.232,9.103,29.525,9.103c18.294,0,29.524-5.303,29.524-9.103   C69.299,42.315,62.594,38.485,51.113,36.894z"></path></g></svg>