<svg fill="#FFFFFF" xmlns="http://www.w3.org/2000/svg" xmlns:xlink="http://www.w3.org/1999/xlink" xml:space="preserve" version="1.1" style="shape-rendering:geometricPrecision;text-rendering:geometricPrecision;image-rendering:optimizeQuality;" viewBox="0 0 227 193" x="0px" y="0px" fill-rule="evenodd" clip-rule="evenodd"><defs><style type="text/css">
   
    .fil0 {fill:#FFFFFF}
    .fil1 {fill:#FFFFFF;fill-rule:nonzero}
   
  </style></defs><g><path class="fil0" d="M1 172c75,0 150,0 225,0 1,0 1,1 0,2 -9,9 -6,9 -19,9 -2,3 -7,10 -11,10 -55,0 -110,0 -165,0 -4,0 -9,-7 -11,-10 -13,0 -10,0 -19,-9 -1,-1 -1,-2 0,-2z"></path><path class="fil0" d="M178 73l0 7c20,-8 44,1 44,25 0,25 -29,47 -53,39 -6,11 -16,20 -27,26l-57 0c-28,-14 -36,-37 -36,-66l129 0c0,12 0,20 -5,32 19,5 40,-13 40,-31 0,-19 -21,-23 -35,-16l0 7 -129 0 0 -23 129 0z"></path><path class="fil1" d="M139 55c2,3 7,0 5,-4 -9,-18 12,-24 0,-49 -1,-4 -7,-1 -5,3 10,22 -12,28 0,50z"></path><path class="fil1" d="M107 55c2,3 8,0 6,-4 -10,-18 12,-24 0,-49 -2,-4 -8,-1 -6,3 11,22 -12,28 0,50z"></path><path class="fil1" d="M76 55c2,3 7,0 5,-4 -9,-18 12,-24 0,-49 -1,-4 -7,-1 -6,3 11,22 -11,28 1,50z"></path></g></svg>